<svg xmlns="http://www.w3.org/2000/svg" xmlns:xlink="http://www.w3.org/1999/xlink" width="1200" zoomAndPan="magnify" viewBox="0 0 900 472.499986" height="630" preserveAspectRatio="xMidYMid meet" version="1.0"><defs><g/></defs><path fill="#ffffff" d="M 740.671875 371.785156 C 740.671875 376.609375 739.957031 384.820312 739.957031 384.820312 C 740.671875 389.640625 743.347656 389.640625 744.777344 387.5 C 746.207031 385.355469 745.492188 378.570312 745.492188 371.609375 C 745.492188 364.824219 740.671875 366.964844 740.671875 371.785156 Z M 740.671875 371.785156 " fill-opacity="1" fill-rule="nonzero"/><path fill="#ffffff" d="M 781.378906 395.890625 C 778.699219 395.890625 776.558594 399.28125 776.558594 399.28125 C 772.449219 410.351562 782.804688 403.386719 785.484375 399.28125 C 788.160156 395.175781 784.054688 395.890625 781.378906 395.890625 Z M 781.378906 395.890625 " fill-opacity="1" fill-rule="nonzero"/><path fill="#ffffff" d="M 762.632812 411.78125 C 760.488281 409.101562 759.953125 413.921875 755.667969 417.3125 C 751.5625 420.707031 754.238281 426.953125 754.238281 426.953125 C 755.667969 437.308594 762.453125 434.453125 766.558594 434.453125 C 770.664062 434.453125 773.523438 433.738281 774.058594 431.0625 C 774.769531 428.382812 774.058594 423.5625 772.628906 421.421875 C 771.734375 419.277344 764.773438 414.457031 762.632812 411.78125 Z M 762.632812 411.78125 " fill-opacity="1" fill-rule="nonzero"/><path fill="#ffffff" d="M 811.015625 257.34375 C 808.335938 252.523438 805.480469 244.3125 805.480469 234.671875 C 805.480469 225.03125 801.375 214.675781 800.660156 204.320312 C 799.945312 193.964844 795.839844 178.074219 795.839844 175.394531 C 795.839844 172.71875 800.660156 173.96875 801.375 169.148438 C 802.085938 164.328125 797.980469 151.828125 795.839844 148.4375 C 793.695312 145.046875 793.695312 144.332031 793.695312 144.332031 C 793.695312 144.332031 795.839844 139.511719 796.375 136.832031 C 797.089844 134.152344 797.800781 124.511719 792.269531 123.800781 C 786.734375 123.085938 788.160156 133.441406 788.160156 133.441406 C 788.160156 133.441406 785.484375 134.15625 784.054688 132.011719 C 782.628906 129.871094 779.949219 118.265625 779.234375 114.695312 C 778.519531 111.300781 766.203125 107.195312 763.34375 106.480469 C 760.667969 105.765625 758.523438 98.984375 758.523438 98.984375 C 758.523438 98.984375 763.34375 94.160156 763.34375 90.769531 C 763.34375 87.378906 759.238281 84.519531 759.238281 84.519531 C 759.238281 84.519531 762.09375 60.953125 740.671875 60.953125 C 726.921875 60.953125 724.78125 81.664062 724.78125 81.664062 C 724.78125 81.664062 722.101562 83.808594 719.960938 83.808594 C 717.816406 83.808594 717.28125 88.628906 719.246094 89.339844 C 721.390625 90.054688 724.78125 91.484375 724.78125 91.484375 L 725.496094 94.160156 C 726.210938 96.839844 726.210938 104.515625 726.210938 104.515625 L 723.53125 110.050781 L 720.851562 110.765625 C 718.175781 111.480469 715.320312 117.015625 715.320312 117.015625 C 715.320312 117.015625 710.5 118.441406 707.820312 122.550781 C 705.140625 126.65625 700.320312 152.1875 700.320312 157.007812 C 700.320312 161.828125 712.105469 168.078125 712.105469 168.078125 L 712.105469 174.324219 L 707.285156 174.324219 C 705.140625 174.324219 703.890625 178.429688 703.890625 178.429688 L 698.359375 177.71875 C 698.359375 177.71875 700.5 172.183594 699.785156 170.21875 C 699.070312 168.078125 692.824219 170.21875 690.859375 169.503906 C 688.714844 168.789062 686.753906 175.039062 686.753906 175.039062 C 686.753906 175.039062 675.683594 176.46875 673.003906 175.039062 C 670.328125 173.609375 664.078125 166.828125 661.222656 162.71875 C 658.542969 158.613281 654.972656 148.257812 653.007812 142.011719 C 650.867188 135.761719 637.121094 126.835938 637.121094 126.835938 L 636.40625 124.15625 C 636.40625 124.15625 634.976562 114.515625 634.261719 112.371094 C 633.546875 110.230469 634.976562 99.875 634.976562 99.875 L 639.617188 104.515625 C 639.617188 104.515625 641.226562 103.980469 641.226562 99.160156 C 641.226562 94.339844 641.226562 85.414062 639.082031 79.878906 C 636.941406 74.34375 630.691406 70.953125 619.085938 72.917969 C 603.734375 75.773438 605.519531 100.589844 603.554688 102.195312 C 596.949219 107.375 599.804688 128.085938 599.804688 128.085938 C 597.664062 131.476562 593.554688 133.617188 588.023438 136.296875 C 582.488281 138.976562 581.773438 143.257812 578.378906 152.902344 C 574.988281 162.542969 572.847656 187.359375 572.847656 197 C 572.847656 206.640625 580.34375 212.890625 582.488281 220.386719 C 584.628906 227.886719 584.628906 256.273438 585.164062 260.378906 C 585.878906 264.484375 593.378906 271.449219 594.804688 277.699219 C 596.234375 283.945312 596.949219 296.980469 596.234375 303.941406 C 595.519531 310.90625 597.664062 340.542969 596.234375 346.613281 C 594.804688 352.863281 596.234375 368.039062 595.519531 373.574219 C 594.804688 379.105469 596.234375 400.53125 596.234375 400.53125 C 596.234375 400.53125 594.089844 406.066406 597.664062 408.746094 C 601.054688 411.421875 605.875 410.886719 609.445312 409.457031 C 612.839844 408.03125 614.265625 406.066406 614.980469 401.960938 C 615.695312 397.851562 616.410156 385.355469 617.121094 375 C 617.835938 364.644531 620.515625 323.226562 622.65625 315.726562 C 624.800781 308.226562 626.765625 313.046875 627.476562 317.867188 C 628.191406 322.6875 630.15625 343.398438 630.15625 349.648438 C 630.15625 355.898438 633.546875 377.144531 634.261719 394.460938 C 634.976562 411.78125 638.367188 411.066406 643.902344 410.351562 C 649.4375 409.636719 650.867188 400.710938 651.402344 395.890625 C 652.117188 391.070312 650.6875 384.820312 650.6875 379.285156 C 650.6875 373.75 649.972656 353.753906 651.402344 330.367188 C 652.832031 306.976562 652.117188 264.84375 652.117188 264.84375 C 652.117188 264.84375 655.507812 262.164062 658.363281 261.449219 C 661.042969 260.738281 661.042969 259.308594 661.757812 254.488281 C 662.472656 249.667969 663.898438 242.703125 663.1875 240.742188 C 662.472656 238.597656 665.328125 233.777344 665.328125 231.101562 C 665.328125 228.421875 668.71875 224.136719 668.71875 224.136719 L 660.328125 224.136719 C 660.328125 224.136719 661.042969 216.636719 660.328125 213.066406 C 659.613281 209.675781 660.328125 200.035156 660.328125 200.035156 C 660.328125 200.035156 665.148438 199.320312 668.542969 199.320312 C 671.933594 199.320312 678.898438 200.035156 678.898438 200.035156 L 679.609375 205.570312 C 679.609375 205.570312 676.933594 208.960938 675.503906 211.816406 C 674.078125 214.496094 672.113281 219.316406 672.113281 219.316406 C 672.113281 219.316406 674.253906 218.601562 676.933594 218.601562 C 679.609375 218.601562 681.039062 215.210938 681.039062 215.210938 C 681.039062 215.210938 681.753906 219.316406 681.039062 222.171875 C 680.324219 224.851562 681.039062 234.492188 678.898438 238.777344 C 676.753906 242.882812 678.898438 256.09375 676.21875 258.773438 C 673.539062 261.449219 674.078125 271.804688 676.21875 273.949219 C 678.359375 276.089844 686.574219 275.378906 686.574219 275.378906 C 686.574219 275.378906 685.859375 284.304688 687.289062 290.550781 C 688.714844 296.800781 692.109375 306.441406 693.535156 310.550781 C 694.964844 314.65625 696.929688 333.222656 696.929688 333.222656 C 696.929688 333.222656 693.535156 340.722656 690.679688 345.542969 C 688.003906 350.363281 682.46875 362.144531 676.933594 373.75 C 671.398438 385.535156 662.472656 399.996094 662.472656 399.996094 C 662.472656 399.996094 669.433594 395.890625 671.398438 393.03125 C 673.539062 390.355469 676.933594 384.820312 681.753906 378.570312 C 686.574219 372.324219 699.605469 356.433594 699.605469 356.433594 C 699.605469 356.433594 698.894531 366.074219 696.929688 368.75 C 694.785156 371.429688 692.109375 377.679688 687.289062 382.5 C 682.46875 387.320312 678.359375 396.960938 678.359375 396.960938 C 678.359375 396.960938 681.753906 396.246094 684.609375 394.28125 C 687.289062 392.140625 692.824219 387.320312 697.644531 383.214844 C 702.464844 379.105469 711.390625 373.574219 711.390625 373.574219 C 711.390625 373.574219 709.960938 379.820312 707.285156 381.785156 C 704.605469 383.925781 703.890625 389.285156 702.464844 394.105469 C 701.035156 398.925781 692.109375 409.992188 692.109375 409.992188 C 692.109375 409.992188 700.320312 405.886719 703.890625 402.496094 C 707.285156 399.101562 714.960938 388.746094 714.960938 388.746094 C 714.960938 388.746094 718.351562 392.855469 719.066406 396.246094 C 719.78125 399.640625 720.496094 408.03125 716.925781 410.707031 C 713.53125 413.386719 714.78125 417.671875 713.53125 421.0625 C 712.105469 424.457031 712.820312 429.277344 715.675781 430.703125 C 718.351562 432.132812 720.496094 432.847656 720.496094 435.523438 C 720.496094 438.203125 717.105469 438.917969 715.675781 442.488281 C 714.246094 445.878906 714.960938 453.558594 716.390625 455.519531 C 717.816406 457.664062 721.925781 456.949219 729.421875 456.234375 C 736.921875 455.519531 738.347656 451.414062 738.347656 446.59375 C 738.347656 441.773438 733.527344 436.238281 732.816406 434.273438 C 732.101562 432.132812 734.957031 428.027344 735.492188 423.917969 C 736.207031 419.8125 735.492188 418.386719 734.066406 416.421875 C 732.636719 414.277344 732.636719 404.636719 731.921875 397.851562 C 731.207031 390.890625 731.921875 381.25 733.351562 375.179688 C 734.777344 368.929688 734.066406 361.433594 734.066406 357.324219 C 734.066406 353.21875 740.3125 343.578125 742.277344 338.757812 C 744.417969 333.9375 749.777344 326.972656 752.632812 322.152344 C 755.308594 317.332031 757.453125 324.832031 757.453125 328.402344 C 757.453125 331.792969 750.488281 337.328125 749.953125 341.4375 C 749.242188 345.542969 752.097656 360.003906 753.347656 364.109375 C 754.773438 368.214844 753.347656 387.5 753.347656 393.03125 C 753.347656 398.566406 751.917969 408.207031 755.488281 407.496094 C 758.882812 406.78125 762.988281 409.636719 765.84375 410.886719 C 768.523438 412.316406 772.808594 408.207031 773.34375 403.386719 C 774.058594 398.566406 769.238281 399.28125 769.238281 395.175781 C 769.238281 391.070312 766.558594 384.820312 766.558594 382.140625 L 766.558594 363.574219 C 766.558594 363.574219 772.808594 358.039062 774.058594 354.648438 C 775.484375 351.253906 778.878906 351.253906 778.878906 351.253906 C 778.878906 351.253906 779.589844 354.648438 779.589844 358.21875 C 779.589844 361.609375 773.34375 370.714844 773.34375 374.109375 C 773.34375 377.5 778.164062 383.75 777.449219 386.605469 C 776.734375 389.285156 778.164062 395.53125 778.164062 395.53125 C 778.164062 395.53125 785.660156 392.855469 786.375 390.710938 C 787.089844 388.570312 782.269531 383.75 782.984375 381.785156 C 783.699219 379.644531 785.660156 374.820312 786.375 368.75 C 787.089844 362.503906 785.660156 345.363281 785.660156 341.257812 C 785.660156 337.152344 780.839844 335.007812 781.554688 330.902344 C 782.269531 326.796875 785.660156 322.6875 787.804688 321.261719 C 789.945312 319.832031 791.910156 313.046875 794.765625 303.40625 C 797.445312 293.765625 795.480469 279.304688 795.480469 279.304688 C 795.480469 279.304688 804.410156 278.589844 809.230469 275.199219 C 813.691406 270.378906 813.691406 262.164062 811.015625 257.34375 Z M 626.230469 118.085938 C 624.085938 118.800781 622.121094 118.800781 619.980469 120.226562 C 617.835938 121.65625 617.300781 120.226562 617.835938 116.835938 C 618.550781 113.445312 621.230469 113.445312 621.230469 109.335938 C 621.230469 105.230469 619.085938 97.019531 621.230469 97.554688 C 622.65625 98.089844 624.621094 98.984375 624.621094 100.945312 C 624.621094 103.089844 627.300781 104.339844 626.765625 109.875 C 626.230469 115.40625 628.371094 117.371094 626.230469 118.085938 Z M 624.085938 84.34375 C 624.085938 84.34375 621.40625 79.523438 626.230469 80.234375 C 631.050781 80.949219 632.476562 84.34375 633.191406 87.199219 C 633.90625 89.878906 633.90625 94.160156 633.90625 94.160156 C 633.90625 94.160156 626.941406 87.734375 624.085938 84.34375 Z M 686.929688 255.203125 C 686.929688 255.203125 683.539062 253.773438 683.539062 251.097656 C 683.539062 248.417969 686.929688 243.0625 686.929688 245.5625 Z M 699.25 186.285156 C 699.25 186.285156 701.394531 180.039062 704.785156 180.039062 C 708.175781 180.039062 709.605469 177.894531 706.925781 181.464844 C 704.070312 185.039062 699.25 189.144531 699.25 186.285156 Z M 736.566406 220.210938 C 735.136719 222.351562 732.457031 220.921875 731.742188 224.316406 C 731.03125 227.707031 731.742188 232.527344 727.636719 233.242188 C 723.53125 233.957031 722.101562 228.421875 720.675781 226.28125 C 719.246094 224.136719 714.425781 224.851562 713.175781 227.707031 C 711.746094 230.386719 707.640625 237.347656 704.964844 233.957031 C 704.964844 233.957031 704.964844 228.421875 709.070312 225.03125 C 713.175781 221.636719 717.996094 214.675781 725.671875 212.710938 C 733.171875 210.566406 736.742188 211.28125 736.742188 211.28125 C 736.742188 211.28125 737.8125 218.066406 736.566406 220.210938 Z M 777.09375 346.257812 C 776.378906 348.933594 776.378906 345.542969 773.699219 343.578125 C 773.699219 343.578125 772.984375 340.1875 775.84375 340.898438 C 778.519531 341.4375 777.804688 343.578125 777.09375 346.257812 Z M 788.875 245.027344 C 787.449219 247.167969 783.339844 245.738281 781.378906 241.632812 C 779.234375 237.527344 777.269531 235.382812 773.878906 235.382812 C 770.488281 235.382812 770.488281 227.886719 764.953125 227.886719 C 759.417969 227.886719 755.3125 225.742188 755.3125 231.277344 C 755.3125 236.8125 752.632812 250.558594 749.0625 237.527344 C 749.0625 237.527344 751.738281 231.992188 749.0625 227.886719 C 746.382812 223.78125 745.667969 221.636719 745.667969 218.246094 C 745.667969 214.851562 747.097656 211.28125 749.0625 211.28125 C 751.203125 211.28125 767.628906 212.710938 774.59375 220.210938 C 781.554688 227.707031 784.949219 235.382812 786.375 238.0625 C 787.449219 240.742188 790.304688 242.882812 788.875 245.027344 Z M 788.875 245.027344 " fill-opacity="1" fill-rule="nonzero"/><g fill="#ffffff" fill-opacity="1"><g transform="translate(83.191798, 126.640442)"><g><path d="M 8.375 0 L 8.375 -70.890625 L 24.359375 -70.890625 L 24.359375 -43.609375 L 48.828125 -43.609375 L 48.828125 -70.890625 L 64.921875 -70.890625 L 64.921875 0 L 48.828125 0 L 48.828125 -29.578125 L 24.359375 -29.578125 L 24.359375 0 Z M 8.375 0 "/></g></g></g><g fill="#ffffff" fill-opacity="1"><g transform="translate(153.427797, 126.640442)"><g><path d="M 8.375 0 L 8.375 -70.890625 L 24.359375 -70.890625 L 24.359375 0 Z M 8.375 0 "/></g></g></g><g fill="#ffffff" fill-opacity="1"><g transform="translate(183.109311, 126.640442)"><g><path d="M 39.6875 1.3125 C 34.832031 1.3125 30.285156 0.53125 26.046875 -1.03125 C 21.804688 -2.59375 18.125 -4.894531 15 -7.9375 C 11.882812 -10.976562 9.4375 -14.765625 7.65625 -19.296875 C 5.882812 -23.828125 5 -29.066406 5 -35.015625 C 5 -40.878906 5.90625 -46.113281 7.71875 -50.71875 C 9.53125 -55.320312 12.007812 -59.21875 15.15625 -62.40625 C 18.3125 -65.601562 21.992188 -68.035156 26.203125 -69.703125 C 30.410156 -71.367188 34.867188 -72.203125 39.578125 -72.203125 C 44.722656 -72.203125 49.144531 -71.257812 52.84375 -69.375 C 56.539062 -67.488281 59.550781 -65.347656 61.875 -62.953125 L 53.5 -52.734375 C 51.6875 -54.328125 49.765625 -55.664062 47.734375 -56.75 C 45.703125 -57.84375 43.164062 -58.390625 40.125 -58.390625 C 37.363281 -58.390625 34.84375 -57.863281 32.5625 -56.8125 C 30.28125 -55.757812 28.304688 -54.253906 26.640625 -52.296875 C 24.972656 -50.335938 23.6875 -47.945312 22.78125 -45.125 C 21.875 -42.300781 21.421875 -39.113281 21.421875 -35.5625 C 21.421875 -28.238281 23.066406 -22.5625 26.359375 -18.53125 C 29.660156 -14.507812 34.644531 -12.5 41.3125 -12.5 C 42.769531 -12.5 44.1875 -12.679688 45.5625 -13.046875 C 46.9375 -13.410156 48.0625 -13.953125 48.9375 -14.671875 L 48.9375 -26.859375 L 37.1875 -26.859375 L 37.1875 -39.90625 L 63.0625 -39.90625 L 63.0625 -7.28125 C 60.601562 -4.894531 57.34375 -2.863281 53.28125 -1.1875 C 49.21875 0.476562 44.6875 1.3125 39.6875 1.3125 Z M 39.6875 1.3125 "/></g></g></g><g fill="#ffffff" fill-opacity="1"><g transform="translate(249.431207, 126.640442)"><g><path d="M 8.375 0 L 8.375 -70.890625 L 24.359375 -70.890625 L 24.359375 -43.609375 L 48.828125 -43.609375 L 48.828125 -70.890625 L 64.921875 -70.890625 L 64.921875 0 L 48.828125 0 L 48.828125 -29.578125 L 24.359375 -29.578125 L 24.359375 0 Z M 8.375 0 "/></g></g></g><g fill="#ffffff" fill-opacity="1"><g transform="translate(319.667206, 126.640442)"><g><path d="M 8.375 0 L 8.375 -70.890625 L 24.359375 -70.890625 L 24.359375 -13.484375 L 52.40625 -13.484375 L 52.40625 0 Z M 8.375 0 "/></g></g></g><g fill="#ffffff" fill-opacity="1"><g transform="translate(372.942077, 126.640442)"><g><path d="M 25.015625 -35.875 L 23.265625 -29.359375 L 38.390625 -29.359375 L 36.75 -35.875 C 35.738281 -39.425781 34.757812 -43.195312 33.8125 -47.1875 C 32.875 -51.175781 31.929688 -55.019531 30.984375 -58.71875 L 30.546875 -58.71875 C 29.679688 -54.945312 28.796875 -51.082031 27.890625 -47.125 C 26.984375 -43.175781 26.023438 -39.425781 25.015625 -35.875 Z M -0.65625 0 L 21.53125 -70.890625 L 40.78125 -70.890625 L 62.953125 0 L 46 0 L 41.640625 -16.859375 L 20 -16.859375 L 15.65625 0 Z M -0.65625 0 "/></g></g></g><g fill="#ffffff" fill-opacity="1"><g transform="translate(432.196828, 126.640442)"><g><path d="M 8.375 0 L 8.375 -70.890625 L 24.796875 -70.890625 L 43.28125 -35.671875 L 50.234375 -20 L 50.671875 -20 C 50.304688 -23.769531 49.890625 -27.972656 49.421875 -32.609375 C 48.953125 -37.253906 48.71875 -41.679688 48.71875 -45.890625 L 48.71875 -70.890625 L 63.9375 -70.890625 L 63.9375 0 L 47.515625 0 L 29.03125 -35.34375 L 22.078125 -50.78125 L 21.640625 -50.78125 C 22.003906 -46.863281 22.421875 -42.65625 22.890625 -38.15625 C 23.359375 -33.664062 23.59375 -29.320312 23.59375 -25.125 L 23.59375 0 Z M 8.375 0 "/></g></g></g><g fill="#ffffff" fill-opacity="1"><g transform="translate(501.454297, 126.640442)"><g><path d="M 8.375 0 L 8.375 -70.890625 L 28.375 -70.890625 C 33.8125 -70.890625 38.703125 -70.203125 43.046875 -68.828125 C 47.398438 -67.453125 51.132812 -65.332031 54.25 -62.46875 C 57.375 -59.601562 59.769531 -55.957031 61.4375 -51.53125 C 63.101562 -47.113281 63.9375 -41.863281 63.9375 -35.78125 C 63.9375 -29.6875 63.101562 -24.390625 61.4375 -19.890625 C 59.769531 -15.398438 57.410156 -11.6875 54.359375 -8.75 C 51.316406 -5.8125 47.675781 -3.617188 43.4375 -2.171875 C 39.195312 -0.722656 34.46875 0 29.25 0 Z M 24.359375 -12.9375 L 27.40625 -12.9375 C 30.445312 -12.9375 33.195312 -13.332031 35.65625 -14.125 C 38.125 -14.925781 40.226562 -16.210938 41.96875 -17.984375 C 43.707031 -19.765625 45.066406 -22.101562 46.046875 -25 C 47.023438 -27.90625 47.515625 -31.5 47.515625 -35.78125 C 47.515625 -39.976562 47.023438 -43.507812 46.046875 -46.375 C 45.066406 -49.238281 43.707031 -51.519531 41.96875 -53.21875 C 40.226562 -54.925781 38.125 -56.140625 35.65625 -56.859375 C 33.195312 -57.585938 30.445312 -57.953125 27.40625 -57.953125 L 24.359375 -57.953125 Z M 24.359375 -12.9375 "/></g></g></g><g fill="#ffffff" fill-opacity="1"><g transform="translate(83.191798, 214.009619)"><g><path d="M 39.6875 1.3125 C 34.832031 1.3125 30.285156 0.53125 26.046875 -1.03125 C 21.804688 -2.59375 18.125 -4.894531 15 -7.9375 C 11.882812 -10.976562 9.4375 -14.765625 7.65625 -19.296875 C 5.882812 -23.828125 5 -29.066406 5 -35.015625 C 5 -40.878906 5.90625 -46.113281 7.71875 -50.71875 C 9.53125 -55.320312 12.007812 -59.21875 15.15625 -62.40625 C 18.3125 -65.601562 21.992188 -68.035156 26.203125 -69.703125 C 30.410156 -71.367188 34.867188 -72.203125 39.578125 -72.203125 C 44.722656 -72.203125 49.144531 -71.257812 52.84375 -69.375 C 56.539062 -67.488281 59.550781 -65.347656 61.875 -62.953125 L 53.5 -52.734375 C 51.6875 -54.328125 49.765625 -55.664062 47.734375 -56.75 C 45.703125 -57.84375 43.164062 -58.390625 40.125 -58.390625 C 37.363281 -58.390625 34.84375 -57.863281 32.5625 -56.8125 C 30.28125 -55.757812 28.304688 -54.253906 26.640625 -52.296875 C 24.972656 -50.335938 23.6875 -47.945312 22.78125 -45.125 C 21.875 -42.300781 21.421875 -39.113281 21.421875 -35.5625 C 21.421875 -28.238281 23.066406 -22.5625 26.359375 -18.53125 C 29.660156 -14.507812 34.644531 -12.5 41.3125 -12.5 C 42.769531 -12.5 44.1875 -12.679688 45.5625 -13.046875 C 46.9375 -13.410156 48.0625 -13.953125 48.9375 -14.671875 L 48.9375 -26.859375 L 37.1875 -26.859375 L 37.1875 -39.90625 L 63.0625 -39.90625 L 63.0625 -7.28125 C 60.601562 -4.894531 57.34375 -2.863281 53.28125 -1.1875 C 49.21875 0.476562 44.6875 1.3125 39.6875 1.3125 Z M 39.6875 1.3125 "/></g></g></g><g fill="#ffffff" fill-opacity="1"><g transform="translate(149.513694, 214.009619)"><g><path d="M 8.375 0 L 8.375 -70.890625 L 33.921875 -70.890625 C 37.691406 -70.890625 41.222656 -70.523438 44.515625 -69.796875 C 47.816406 -69.078125 50.703125 -67.863281 53.171875 -66.15625 C 55.640625 -64.457031 57.597656 -62.191406 59.046875 -59.359375 C 60.492188 -56.535156 61.21875 -53.023438 61.21875 -48.828125 C 61.21875 -43.609375 60.070312 -39.3125 57.78125 -35.9375 C 55.5 -32.5625 52.441406 -30.039062 48.609375 -28.375 L 64.703125 0 L 46.75 0 L 33.15625 -25.546875 L 24.359375 -25.546875 L 24.359375 0 Z M 24.359375 -38.28125 L 32.625 -38.28125 C 36.820312 -38.28125 40.023438 -39.164062 42.234375 -40.9375 C 44.453125 -42.71875 45.5625 -45.347656 45.5625 -48.828125 C 45.5625 -52.304688 44.453125 -54.734375 42.234375 -56.109375 C 40.023438 -57.484375 36.820312 -58.171875 32.625 -58.171875 L 24.359375 -58.171875 Z M 24.359375 -38.28125 "/></g></g></g><g fill="#ffffff" fill-opacity="1"><g transform="translate(213.117465, 214.009619)"><g><path d="M 37.1875 1.3125 C 32.40625 1.3125 28.035156 0.457031 24.078125 -1.25 C 20.128906 -2.957031 16.738281 -5.40625 13.90625 -8.59375 C 11.082031 -11.78125 8.890625 -15.65625 7.328125 -20.21875 C 5.773438 -24.789062 5 -29.976562 5 -35.78125 C 5 -41.570312 5.773438 -46.734375 7.328125 -51.265625 C 8.890625 -55.796875 11.082031 -59.601562 13.90625 -62.6875 C 16.738281 -65.769531 20.128906 -68.125 24.078125 -69.75 C 28.035156 -71.382812 32.40625 -72.203125 37.1875 -72.203125 C 41.96875 -72.203125 46.332031 -71.382812 50.28125 -69.75 C 54.238281 -68.125 57.628906 -65.75 60.453125 -62.625 C 63.285156 -59.507812 65.476562 -55.6875 67.03125 -51.15625 C 68.59375 -46.625 69.375 -41.5 69.375 -35.78125 C 69.375 -29.976562 68.59375 -24.789062 67.03125 -20.21875 C 65.476562 -15.65625 63.285156 -11.78125 60.453125 -8.59375 C 57.628906 -5.40625 54.238281 -2.957031 50.28125 -1.25 C 46.332031 0.457031 41.96875 1.3125 37.1875 1.3125 Z M 37.1875 -12.5 C 42.039062 -12.5 45.878906 -14.582031 48.703125 -18.75 C 51.535156 -22.925781 52.953125 -28.601562 52.953125 -35.78125 C 52.953125 -42.875 51.535156 -48.414062 48.703125 -52.40625 C 45.878906 -56.394531 42.039062 -58.390625 37.1875 -58.390625 C 32.332031 -58.390625 28.488281 -56.394531 25.65625 -52.40625 C 22.832031 -48.414062 21.421875 -42.875 21.421875 -35.78125 C 21.421875 -28.601562 22.832031 -22.925781 25.65625 -18.75 C 28.488281 -14.582031 32.332031 -12.5 37.1875 -12.5 Z M 37.1875 -12.5 "/></g></g></g><g fill="#ffffff" fill-opacity="1"><g transform="translate(284.44071, 214.009619)"><g><path d="M 36.3125 1.3125 C 27.113281 1.3125 20.082031 -1.40625 15.21875 -6.84375 C 10.363281 -12.28125 7.9375 -20.945312 7.9375 -32.84375 L 7.9375 -70.890625 L 24.03125 -70.890625 L 24.03125 -31.203125 C 24.03125 -24.242188 25.082031 -19.382812 27.1875 -16.625 C 29.289062 -13.875 32.332031 -12.5 36.3125 -12.5 C 40.300781 -12.5 43.382812 -13.875 45.5625 -16.625 C 47.738281 -19.382812 48.828125 -24.242188 48.828125 -31.203125 L 48.828125 -70.890625 L 64.265625 -70.890625 L 64.265625 -32.84375 C 64.265625 -20.945312 61.890625 -12.28125 57.140625 -6.84375 C 52.390625 -1.40625 45.445312 1.3125 36.3125 1.3125 Z M 36.3125 1.3125 "/></g></g></g><g fill="#ffffff" fill-opacity="1"><g transform="translate(353.698179, 214.009619)"><g><path d="M 8.375 0 L 8.375 -70.890625 L 32.734375 -70.890625 C 36.640625 -70.890625 40.296875 -70.507812 43.703125 -69.75 C 47.117188 -68.988281 50.09375 -67.71875 52.625 -65.9375 C 55.164062 -64.164062 57.175781 -61.8125 58.65625 -58.875 C 60.144531 -55.9375 60.890625 -52.332031 60.890625 -48.0625 C 60.890625 -43.925781 60.144531 -40.335938 58.65625 -37.296875 C 57.175781 -34.253906 55.164062 -31.753906 52.625 -29.796875 C 50.09375 -27.835938 47.15625 -26.382812 43.8125 -25.4375 C 40.476562 -24.5 36.925781 -24.03125 33.15625 -24.03125 L 24.359375 -24.03125 L 24.359375 0 Z M 24.359375 -36.75 L 32.1875 -36.75 C 40.882812 -36.75 45.234375 -40.519531 45.234375 -48.0625 C 45.234375 -51.757812 44.070312 -54.367188 41.75 -55.890625 C 39.4375 -57.410156 36.101562 -58.171875 31.75 -58.171875 L 24.359375 -58.171875 Z M 24.359375 -36.75 "/></g></g></g><path fill="#ffffff" d="M 187.527344 345.132812 L 187.527344 344.777344 C 187.527344 342.097656 194.3125 338.527344 199.667969 333.527344 C 205.558594 327.101562 212.699219 315.855469 212.699219 301.929688 L 212.699219 298.894531 C 212.699219 265.148438 191.453125 243.902344 157.710938 243.902344 L 90.9375 243.902344 C 88.796875 243.902344 87.902344 244.796875 87.902344 246.9375 L 87.902344 427.441406 C 87.902344 429.582031 88.796875 430.476562 90.9375 430.476562 L 118.96875 430.476562 C 121.109375 430.476562 122.003906 429.582031 122.003906 427.441406 L 122.003906 354.417969 C 122.003906 352.277344 122.894531 351.382812 125.039062 351.382812 L 151.285156 351.382812 L 153.605469 353.167969 L 179.671875 428.332031 C 180.5625 429.761719 181.457031 430.476562 182.347656 430.476562 L 212.878906 430.476562 C 215.019531 430.476562 215.914062 429.582031 215.914062 428.152344 C 215.914062 427.796875 215.914062 427.261719 215.558594 426.726562 Z M 178.777344 299.070312 C 178.777344 310.855469 168.957031 320.316406 157.53125 320.316406 L 125.039062 320.316406 C 122.894531 320.316406 122.003906 319.425781 122.003906 317.28125 L 122.003906 278.003906 C 122.003906 275.863281 122.894531 274.96875 125.039062 274.96875 L 157.53125 274.96875 C 169.136719 274.96875 178.777344 284.789062 178.777344 296.214844 Z M 178.777344 299.070312 " fill-opacity="1" fill-rule="nonzero"/><path fill="#ffffff" d="M 323.929688 243.902344 L 257.335938 243.902344 C 255.191406 243.902344 254.300781 244.796875 254.300781 246.9375 L 254.300781 427.441406 C 254.300781 429.582031 255.191406 430.476562 257.335938 430.476562 L 323.929688 430.476562 C 357.671875 430.476562 378.917969 409.230469 378.917969 375.484375 L 378.917969 299.070312 C 378.917969 265.328125 357.492188 243.902344 323.929688 243.902344 Z M 345.175781 377.984375 C 345.175781 389.769531 335.710938 399.230469 323.929688 399.230469 L 291.433594 399.230469 C 289.292969 399.230469 288.398438 398.339844 288.398438 396.195312 L 288.398438 277.824219 C 288.398438 275.683594 289.292969 274.789062 291.433594 274.789062 L 323.929688 274.789062 C 335.535156 274.789062 345.175781 284.609375 345.175781 296.035156 Z M 345.175781 377.984375 " fill-opacity="1" fill-rule="nonzero"/><path fill="#ffffff" d="M 540.136719 426.546875 L 485.148438 246.046875 C 484.613281 244.617188 483.71875 243.902344 482.113281 243.902344 L 460.867188 243.902344 C 459.082031 243.902344 458.546875 244.4375 457.832031 246.046875 L 402.84375 426.546875 C 402.84375 427.082031 402.484375 427.441406 402.484375 427.796875 C 402.484375 429.582031 403.734375 430.476562 405.699219 430.476562 L 435.335938 430.476562 C 436.765625 430.476562 438.015625 429.9375 438.371094 428.332031 L 447.296875 397.265625 C 447.65625 395.839844 448.546875 395.480469 450.332031 395.480469 L 492.644531 395.480469 C 494.429688 395.480469 495.324219 395.839844 495.679688 397.265625 L 504.609375 428.332031 C 504.964844 429.761719 505.859375 430.476562 507.644531 430.476562 L 537.457031 430.476562 C 539.601562 430.476562 540.671875 429.582031 540.671875 427.796875 C 540.492188 427.441406 540.136719 427.082031 540.136719 426.546875 Z M 482.113281 364.417969 L 460.507812 364.417969 C 458.367188 364.417969 457.296875 363.523438 457.296875 361.738281 C 457.296875 361.382812 457.652344 360.84375 457.652344 360.488281 L 467.652344 321.390625 C 468.007812 319.601562 469.078125 314.246094 471.222656 305.140625 L 472.113281 305.140625 C 473.898438 314.246094 475.148438 319.601562 475.328125 321.390625 L 485.148438 360.488281 C 485.148438 360.84375 485.503906 361.382812 485.503906 361.738281 C 485.324219 363.523438 484.253906 364.417969 482.113281 364.417969 Z M 482.113281 364.417969 " fill-opacity="1" fill-rule="nonzero"/></svg>